<svg width="40" height="40" viewBox="0 0 40 40" fill="none" xmlns="http://www.w3.org/2000/svg">
<path fill-rule="evenodd" clip-rule="evenodd" d="M19.9468 39.5106C30.9631 39.5106 39.8936 30.6659 39.8936 19.7553C39.8936 8.84476 30.9631 0 19.9468 0C8.93049 0 0 8.84476 0 19.7553C0 30.6659 8.93049 39.5106 19.9468 39.5106Z" fill="#F5F6FA" fill-opacity="0.01"/>
<mask id="mask0_6_169" style="mask-type:luminance" maskUnits="userSpaceOnUse" x="0" y="0" width="40" height="40">
<path fill-rule="evenodd" clip-rule="evenodd" d="M19.9468 39.5106C30.9631 39.5106 39.8936 30.6659 39.8936 19.7553C39.8936 8.84476 30.9631 0 19.9468 0C8.93049 0 0 8.84476 0 19.7553C0 30.6659 8.93049 39.5106 19.9468 39.5106Z" fill="white"/>
</mask>
<g mask="url(#mask0_6_169)">
</g>
<path d="M22.2324 29.7875V21.0922H25.2069L25.6531 17.7025H22.2324V15.5387C22.2324 14.5576 22.509 13.889 23.945 13.889L25.7735 13.8882V10.8563C25.4573 10.816 24.3719 10.7236 23.1085 10.7236C20.4704 10.7236 18.6644 12.303 18.6644 15.2029V17.7025H15.6809V21.0922H18.6644V29.7875H22.2324Z" fill="white"/>
<mask id="mask1_6_169" style="mask-type:luminance" maskUnits="userSpaceOnUse" x="15" y="10" width="11" height="20">
<path d="M22.2324 29.7875V21.0922H25.2069L25.6531 17.7025H22.2324V15.5387C22.2324 14.5576 22.509 13.889 23.945 13.889L25.7735 13.8882V10.8563C25.4573 10.816 24.3719 10.7236 23.1085 10.7236C20.4704 10.7236 18.6644 12.303 18.6644 15.2029V17.7025H15.6809V21.0922H18.6644V29.7875H22.2324Z" fill="white"/>
</mask>
<g mask="url(#mask1_6_169)">
<rect x="7.34058" y="7.14893" width="26.2128" height="26.2128" fill="white"/>
</g>
</svg>
