<svg width="40" height="40" viewBox="0 0 40 40" fill="none" xmlns="http://www.w3.org/2000/svg">
<path fill-rule="evenodd" clip-rule="evenodd" d="M19.9468 39.5106C30.9631 39.5106 39.8936 30.6659 39.8936 19.7553C39.8936 8.84476 30.9631 0 19.9468 0C8.93049 0 0 8.84476 0 19.7553C0 30.6659 8.93049 39.5106 19.9468 39.5106Z" fill="#F5F6FA" fill-opacity="0.01"/>
<mask id="mask0_6_158" style="mask-type:luminance" maskUnits="userSpaceOnUse" x="0" y="0" width="40" height="40">
<path fill-rule="evenodd" clip-rule="evenodd" d="M19.9468 39.5106C30.9631 39.5106 39.8936 30.6659 39.8936 19.7553C39.8936 8.84476 30.9631 0 19.9468 0C8.93049 0 0 8.84476 0 19.7553C0 30.6659 8.93049 39.5106 19.9468 39.5106Z" fill="white"/>
</mask>
<g mask="url(#mask0_6_158)">
</g>
<path d="M20.4469 18.5874V21.9235H25.1659C24.477 23.8652 22.6221 25.2597 20.4469 25.2597C17.6879 25.2597 15.4426 23.0145 15.4426 20.2555C15.4426 17.4965 17.6879 15.2512 20.4469 15.2512C21.6429 15.2512 22.7939 15.6799 23.688 16.4589L25.8798 13.9434C24.3785 12.6357 22.4502 11.915 20.4469 11.915C15.848 11.915 12.1064 15.6566 12.1064 20.2555C12.1064 24.8544 15.848 28.5959 20.4469 28.5959C25.0458 28.5959 28.7873 24.8544 28.7873 20.2555V18.5874H20.4469Z" fill="black"/>
<mask id="mask1_6_158" style="mask-type:luminance" maskUnits="userSpaceOnUse" x="12" y="11" width="17" height="18">
<path d="M20.4469 18.5874V21.9235H25.1659C24.477 23.8652 22.6221 25.2597 20.4469 25.2597C17.6879 25.2597 15.4426 23.0145 15.4426 20.2555C15.4426 17.4965 17.6879 15.2512 20.4469 15.2512C21.6429 15.2512 22.7939 15.6799 23.688 16.4589L25.8798 13.9434C24.3785 12.6357 22.4502 11.915 20.4469 11.915C15.848 11.915 12.1064 15.6566 12.1064 20.2555C12.1064 24.8544 15.848 28.5959 20.4469 28.5959C25.0458 28.5959 28.7873 24.8544 28.7873 20.2555V18.5874H20.4469Z" fill="white"/>
</mask>
<g mask="url(#mask1_6_158)">
<rect x="7.34058" y="7.14893" width="26.2128" height="26.2128" fill="white"/>
</g>
</svg>
