<svg width="40" height="40" viewBox="0 0 40 40" fill="none" xmlns="http://www.w3.org/2000/svg">
<path fill-rule="evenodd" clip-rule="evenodd" d="M19.9468 39.5106C30.9631 39.5106 39.8936 30.6659 39.8936 19.7553C39.8936 8.84476 30.9631 0 19.9468 0C8.93049 0 0 8.84476 0 19.7553C0 30.6659 8.93049 39.5106 19.9468 39.5106Z" fill="#F5F6FA" fill-opacity="0.01"/>
<mask id="mask0_6_147" style="mask-type:luminance" maskUnits="userSpaceOnUse" x="0" y="0" width="40" height="40">
<path fill-rule="evenodd" clip-rule="evenodd" d="M19.9468 39.5106C30.9631 39.5106 39.8936 30.6659 39.8936 19.7553C39.8936 8.84476 30.9631 0 19.9468 0C8.93049 0 0 8.84476 0 19.7553C0 30.6659 8.93049 39.5106 19.9468 39.5106Z" fill="white"/>
</mask>
<g mask="url(#mask0_6_147)">
</g>
<path d="M31.1701 13.8617C30.4246 14.192 29.6247 14.4161 28.7842 14.5161C29.6424 14.0022 30.2993 13.1871 30.6106 12.2188C29.8056 12.6947 28.9171 13.0403 27.9703 13.2276C27.2122 12.4188 26.1338 11.915 24.9376 11.915C22.6429 11.915 20.7823 13.7756 20.7823 16.0691C20.7823 16.3944 20.819 16.7121 20.8899 17.0159C17.437 16.8425 14.3752 15.1882 12.326 12.6744C11.9678 13.2871 11.7641 14.0009 11.7641 14.7629C11.7641 16.2046 12.4982 17.4766 13.612 18.2208C12.9311 18.1981 12.2906 18.0107 11.7299 17.6994V17.7513C11.7299 19.7637 13.1627 21.4433 15.0625 21.8256C14.7145 21.9193 14.3474 21.9712 13.9677 21.9712C13.6994 21.9712 13.4399 21.9446 13.1855 21.894C13.7145 23.5457 15.2486 24.7469 17.0662 24.7798C15.6448 25.8937 13.8525 26.5556 11.9058 26.5556C11.5704 26.5556 11.2401 26.5354 10.9148 26.4987C12.7539 27.6796 14.9373 28.3682 17.2839 28.3682C24.9276 28.3682 29.1057 22.037 29.1057 16.5463L29.0918 16.0084C29.9082 15.4261 30.6144 14.6946 31.1701 13.8617Z" fill="#010002"/>
<mask id="mask1_6_147" style="mask-type:luminance" maskUnits="userSpaceOnUse" x="10" y="11" width="22" height="18">
<path d="M31.1701 13.8617C30.4246 14.192 29.6247 14.4161 28.7842 14.5161C29.6424 14.0022 30.2993 13.1871 30.6106 12.2188C29.8056 12.6947 28.9171 13.0403 27.9703 13.2276C27.2122 12.4188 26.1338 11.915 24.9376 11.915C22.6429 11.915 20.7823 13.7756 20.7823 16.0691C20.7823 16.3944 20.819 16.7121 20.8899 17.0159C17.437 16.8425 14.3752 15.1882 12.326 12.6744C11.9678 13.2871 11.7641 14.0009 11.7641 14.7629C11.7641 16.2046 12.4982 17.4766 13.612 18.2208C12.9311 18.1981 12.2906 18.0107 11.7299 17.6994V17.7513C11.7299 19.7637 13.1627 21.4433 15.0625 21.8256C14.7145 21.9193 14.3474 21.9712 13.9677 21.9712C13.6994 21.9712 13.4399 21.9446 13.1855 21.894C13.7145 23.5457 15.2486 24.7469 17.0662 24.7798C15.6448 25.8937 13.8525 26.5556 11.9058 26.5556C11.5704 26.5556 11.2401 26.5354 10.9148 26.4987C12.7539 27.6796 14.9373 28.3682 17.2839 28.3682C24.9276 28.3682 29.1057 22.037 29.1057 16.5463L29.0918 16.0084C29.9082 15.4261 30.6144 14.6946 31.1701 13.8617Z" fill="white"/>
</mask>
<g mask="url(#mask1_6_147)">
<rect x="7.34033" y="7.14893" width="26.2128" height="26.2128" fill="white"/>
</g>
</svg>
